<svg xmlns="http://www.w3.org/2000/svg" viewBox="0 0 297 297"><g fill="#fff"><path d="M102.898 252.076h91.204c.15-2.626.339-5.705.574-9.072h-92.352c.235 3.367.424 6.446.574 9.072zm56.386-21.052V173.63a6.99 6.99 0 0 1 1.148-3.838l10.53-16.024V124.11a7.542 7.542 0 0 0-5.099-7.143l-1.706-.524-11.469 8.588a6.992 6.992 0 0 1-8.377 0l-11.469-8.588-1.706.524a7.543 7.543 0 0 0-5.099 7.143v29.658l10.53 16.024a6.983 6.983 0 0 1 1.148 3.838v57.395h21.569zm-55.65 33.031C106.747 296.977 132.799 297 148.5 297s41.753-.023 44.866-32.945h-89.732zM148.5 68.634c-4.266 0-7.737 3.471-7.737 7.737s3.471 7.737 7.737 7.737 7.737-3.471 7.737-7.737-3.471-7.737-7.737-7.737z"/><path d="M148.5 0C92.627 0 47.171 45.457 47.171 101.329c0 29.389 15.677 48.896 30.838 67.762 4.754 5.916 9.67 12.033 14.094 18.435 4.906 7.099 7.674 26.425 9.255 43.498h22.382V175.72l-10.53-16.025a6.978 6.978 0 0 1-1.148-3.837V124.11c0-9.282 5.916-17.49 14.722-20.425.053-.018 5.354-1.646 5.354-1.646a6.984 6.984 0 0 1 6.239 1.087l10.124 7.58 10.124-7.58a6.992 6.992 0 0 1 6.239-1.087s5.302 1.628 5.354 1.646a21.5 21.5 0 0 1 14.722 20.425v31.748a6.983 6.983 0 0 1-1.148 3.837l-10.53 16.025v55.304h22.382c1.581-17.073 4.349-36.399 9.255-43.498 4.424-6.401 9.341-12.519 14.094-18.435 15.161-18.866 30.838-38.373 30.838-67.762C249.829 45.457 204.373 0 148.5 0zm0 98.085c-11.973 0-21.713-9.74-21.713-21.713s9.74-21.713 21.713-21.713 21.713 9.74 21.713 21.713-9.74 21.713-21.713 21.713z"/></g></svg>